<?xml version="1.0" encoding="utf-8"?><!-- Uploaded to: SVG Repo, www.svgrepo.com, Generator: SVG Repo Mixer Tools -->
<svg fill="#000000" width="800px" height="800px" viewBox="-1 0 19 19" xmlns="http://www.w3.org/2000/svg" class="cf-icon-svg"><path d="M16.417 9.583A7.917 7.917 0 1 1 8.5 1.666a7.917 7.917 0 0 1 7.917 7.917zm-2.806 4.029a.396.396 0 0 0-.396-.396H4.868v-7.94a.396.396 0 1 0-.792 0v8.336a.396.396 0 0 0 .396.396h8.743a.396.396 0 0 0 .396-.396zM5.68 12.396h1.254V7.938a.318.318 0 0 0-.316-.317h-.622a.318.318 0 0 0-.316.317zm2.012 0h1.255V5.495a.318.318 0 0 0-.317-.317h-.62a.318.318 0 0 0-.318.317zm2.013 0h1.255V7.938a.318.318 0 0 0-.317-.317h-.621a.318.318 0 0 0-.317.317zm2.013 0h1.255V10.38a.317.317 0 0 0-.317-.317h-.621a.317.317 0 0 0-.317.317z"/></svg>